<?xml version="1.0" standalone="no"?>
<!DOCTYPE svg PUBLIC "-//W3C//DTD SVG 20010904//EN"
 "http://www.w3.org/TR/2001/REC-SVG-20010904/DTD/svg10.dtd">
<svg version="1.0" xmlns="http://www.w3.org/2000/svg"
 width="609.000000pt" height="609.000000pt" viewBox="0 0 609.000000 609.000000"
 preserveAspectRatio="xMidYMid meet">
<metadata>
Created by potrace 1.11, written by Peter Selinger 2001-2013
</metadata>
<g transform="translate(0.000000,609.000000) scale(0.100000,-0.100000)"
fill="#000000" stroke="none">
<path d="M860 5970 c-419 -88 -729 -382 -833 -790 l-22 -85 0 -2050 0 -2050
23 -80 c119 -405 443 -703 857 -786 59 -12 410 -14 2195 -14 l2125 0 97 27
c380 105 670 395 763 762 l25 99 0 2091 c0 2079 0 2092 -21 2166 -89 323 -350
596 -673 706 l-70 24 -2190 -1 c-2067 -1 -2196 -2 -2276 -19z m922 -277 c23
-21 24 -75 1 -95 -10 -8 -76 -34 -148 -57 -216 -70 -423 -186 -598 -336 -268
-230 -485 -612 -552 -967 -38 -205 -35 -480 9 -683 31 -145 31 -150 5 -176
-27 -27 -76 -22 -100 11 -10 14 -31 84 -46 155 -26 121 -27 146 -27 370 0 223
1 249 26 366 123 574 498 1053 1018 1303 130 63 308 125 359 126 19 0 43 -7
53 -17z m2598 -18 c14 -3 30 -7 35 -9 105 -29 141 -40 230 -74 59 -22 305
-153 344 -182 240 -184 394 -338 486 -489 6 -9 21 -32 35 -51 81 -113 214
-415 235 -535 2 -16 9 -45 14 -62 5 -18 8 -33 6 -33 -3 0 -1 -10 4 -22 18 -48
25 -150 26 -353 0 -291 -30 -449 -90 -477 -19 -9 -29 -7 -50 6 -38 25 -40 39
-20 140 26 132 30 174 30 341 0 246 -30 416 -112 625 -45 114 -145 300 -207
383 -123 164 -266 302 -426 413 -59 41 -266 150 -332 176 -58 21 -115 39 -223
68 -102 28 -132 74 -80 126 24 24 30 25 95 9z m-1718 -502 c23 -21 24 -75 1
-95 -10 -8 -76 -34 -148 -57 -486 -157 -841 -490 -1058 -991 -118 -274 -152
-675 -83 -995 31 -145 31 -150 5 -176 -27 -27 -76 -22 -100 11 -22 29 -64 236
-76 365 -8 91 -1 367 12 439 92 528 378 972 810 1261 131 88 300 171 445 219
117 39 165 44 192 19z m412 -50 c19 -85 43 -255 57 -398 14 -150 23 -731 14
-888 l-7 -128 -87 3 -86 3 -6 65 c-11 107 -10 637 1 802 20 296 66 608 90 608
5 0 15 -30 24 -67z m553 32 c595 -195 1060 -692 1219 -1303 13 -52 26 -105 28
-117 37 -202 33 -515 -9 -715 -14 -69 -34 -136 -44 -150 -24 -33 -73 -38 -100
-11 -26 26 -26 31 4 174 51 238 51 480 0 732 -12 60 -59 212 -82 265 -48 109
-118 244 -160 307 -224 334 -527 565 -898 684 -71 23 -138 49 -147 57 -23 19
-23 70 -1 94 24 26 68 23 190 -17z m-472 -1599 c85 -46 115 -178 61 -270 -68
-116 -249 -121 -326 -9 -36 53 -41 156 -9 213 52 93 172 122 274 66z m-411
-279 c9 -24 28 -59 41 -78 l25 -34 -22 -17 c-25 -18 -190 -118 -273 -163 -27
-15 -95 -53 -150 -83 -265 -148 -616 -302 -800 -352 l-70 -20 74 70 c41 39 96
85 121 103 26 17 74 52 106 77 48 36 168 114 349 227 143 89 554 312 576 313
4 0 14 -19 23 -43z m767 -21 c408 -206 906 -530 1058 -690 l35 -36 -70 20
c-71 19 -181 59 -294 105 -199 82 -678 333 -872 457 l-77 49 29 46 c16 25 34
61 41 80 6 18 13 33 16 33 4 0 64 -29 134 -64z m-390 -256 c0 -36 13 -351 27
-700 l27 -635 52 -3 c29 -2 61 2 71 7 11 6 64 20 118 32 292 63 581 210 792
403 93 85 128 97 158 51 25 -38 11 -65 -68 -136 -188 -168 -398 -293 -628
-374 -154 -53 -263 -77 -374 -80 -54 -2 -102 -7 -107 -12 -4 -4 0 -190 9 -413
l17 -405 40 -3 c21 -2 66 4 99 13 32 9 71 19 85 21 14 3 51 12 81 21 30 9 57
17 60 18 16 4 58 17 75 25 11 4 45 18 75 30 60 25 314 168 347 197 11 10 35
29 53 43 19 14 65 55 104 92 86 82 110 91 142 54 37 -42 27 -58 -113 -183 -23
-21 -54 -47 -68 -58 -14 -11 -40 -32 -58 -46 -40 -32 -312 -189 -327 -189 -6
0 -21 -5 -33 -12 -45 -25 -220 -85 -287 -98 -25 -5 -56 -12 -70 -15 -14 -3
-62 -11 -107 -17 l-83 -12 0 -63 0 -63 -180 0 -180 0 0 63 0 63 -77 12 c-154
23 -200 33 -318 73 -149 50 -310 129 -440 215 -55 36 -102 69 -105 72 -3 4
-27 25 -55 47 -99 78 -155 141 -155 172 0 22 7 33 25 41 41 19 48 16 116 -49
35 -33 77 -70 93 -82 15 -12 42 -33 60 -47 64 -52 168 -116 283 -174 91 -45
297 -119 368 -131 22 -4 61 -13 87 -21 26 -9 66 -14 90 -12 l43 3 17 405 c10
234 13 409 8 414 -5 5 -53 10 -107 11 -258 7 -642 163 -893 363 -104 83 -181
157 -186 179 -9 35 20 73 56 73 23 0 48 -17 112 -76 208 -190 526 -352 793
-404 33 -6 81 -18 107 -26 26 -8 66 -14 90 -12 l43 3 27 635 c14 349 27 664
27 700 l1 65 70 0 70 0 1 -65z"/>
</g>
</svg>
